#!OML:ASF E:\emotionWalksFemale\Project 1\Capture day 1\Session 1\Female1.ASF
:FULLY-SPECIFIED
:DEGREES
211
root 10.0297 15.745 0.147285 6.00284 -2.1466 0.0676379
lowerback 9.05319 1.32344 0.865938
upperback -4.30813 1.87985 -0.144459
thorax -9.65376 0.848658 -0.96517
lowerneck -6.49866 -2.89968 -5.4971
upperneck 9.10186 -3.75049 4.22402
head 3.96349 -1.82826 1.98071
rclavicle -3.10756e-015 -2.5842e-015
rhumerus -40.2419 15.1203 -95.4986
rradius 36.7291
rwrist 23.0024
rhand -7.33714 -53.7534
rfingers 7.12502
rthumb 18.5465 -82.8893
lclavicle -3.10756e-015 -2.5842e-015
lhumerus -39.0538 -1.54857 87.4877
lradius 30.7281
lwrist -19.3107
lhand -3.3761 -34.3072
lfingers 7.12502
lthumb 22.353 -5.58027
rfemur -4.88017 17.9065 26.4489
rtibia 13.7036
rfoot -13.235 -29.2998
rtoes 6.81143
lfemur -10.3749 -22.543 -23.5677
ltibia 21.99
lfoot -19.8531 24.4145
ltoes -26.8733
212
root 10.0265 15.7468 0.152979 6.18377 -2.15365 0.278232
lowerback 8.87594 1.35356 0.70743
upperback -4.3155 1.88973 -0.238578
thorax -9.55852 0.861184 -0.973093
lowerneck -6.69802 -2.9609 -5.46365
upperneck 9.23116 -3.82785 4.20681
head 4.03883 -1.86394 1.96241
rclavicle 1.9484e-014 -3.37934e-015
rhumerus -39.9733 14.2411 -95.1749
rradius 36.066
rwrist 23.4129
rhand -7.75885 -54.0045
rfingers 7.12502
rthumb 18.1409 -83.1785
lclavicle 1.9484e-014 -3.37934e-015
lhumerus -38.9547 -1.14294 87.2701
lradius 30.4295
lwrist -20.4249
lhand -3.04641 -33.4799
lfingers 7.12502
lthumb 22.6694 -4.79136
rfemur -5.1523 17.9224 26.1632
rtibia 13.8671
rfoot -13.4235 -29.3146
rtoes 6.96824
lfemur -10.3746 -22.7742 -23.7254
ltibia 21.6695
lfoot -20.0112 24.4488
ltoes -25.7326
213
root 10.0224 15.7498 0.157265 6.31771 -2.09409 0.444929
lowerback 8.67858 1.3288 0.556658
upperback -4.24288 1.83431 -0.250209
thorax -9.36754 0.845562 -0.884332
lowerneck -6.87832 -2.98429 -5.75258
upperneck 9.16972 -3.83739 4.40403
head 4.05996 -1.86619 2.06701
rclavicle -1.70831e-015 2.48481e-015
rhumerus -39.6627 13.5538 -94.8021
rradius 35.4718
rwrist 24.0395
rhand -8.01253 -54.1636
rfingers 7.12502
rthumb 17.8968 -83.3601
lclavicle -1.70831e-015 2.48481e-015
lhumerus -38.7334 -0.697916 87.1527
lradius 30.1801
lwrist -21.2526
lhand -2.09558 -32.3623
lfingers 7.12502
lthumb 23.5817 -3.78822
rfemur -5.34039 17.7997 25.9541
rtibia 14.0438
rfoot -13.3295 -29.2441
rtoes 6.28947
lfemur -10.3973 -22.705 -23.8458
ltibia 21.4197
lfoot -19.8782 24.3615
ltoes -26.213
214
root 10.016 15.7527 0.157016 6.46251 -1.9919 0.471841
lowerback 8.51891 1.26015 0.471595
upperback -4.19916 1.73568 -0.187798
thorax -9.23157 0.806622 -0.748718
lowerneck -6.76879 -2.99355 -5.99336
upperneck 8.84711 -3.83699 4.55997
head 3.95131 -1.86697 2.1563
rclavicle 1.73005e-015 3.57812e-015
rhumerus -39.4905 13.1597 -94.4937
rradius 34.9398
rwrist 24.5848
rhand -7.76769 -54.5783
rfingers 7.12502
rthumb 18.1324 -83.7531
lclavicle 1.73005e-015 3.57812e-015
lhumerus -38.5927 -0.329787 87.0813
lradius 30.0086
lwrist -22.0033
lhand -0.780083 -31.098
lfingers 7.12502
lthumb 24.843 -2.69201
rfemur -5.51227 17.7337 25.9097
rtibia 14.1261
rfoot -13.1352 -29.2512
rtoes 5.61652
lfemur -10.5242 -22.8242 -23.7629
ltibia 21.2876
lfoot -19.8348 24.3818
ltoes -26.7199
215
root 10.0076 15.7518 0.156264 6.51331 -1.77876 0.434836
lowerback 8.50743 1.16627 0.430442
upperback -4.16592 1.60944 -0.126772
thorax -9.1931 0.750392 -0.639344
lowerneck -6.74596 -2.99462 -6.01209
upperneck 8.6928 -3.83681 4.59352
head 3.90163 -1.86579 2.17039
rclavicle 1.55301e-016 -4.37326e-015
rhumerus -39.452 12.6574 -94.2173
rradius 34.3855
rwrist 25.2987
rhand -7.94251 -54.6904
rfingers 7.12502
rthumb 17.9642 -83.8808
lclavicle 1.55301e-016 -4.37326e-015
lhumerus -38.4005 0.00814081 86.9785
lradius 29.6513
lwrist -22.868
lhand 0.946886 -29.8857
lfingers 7.12502
lthumb 26.497 -1.71843
rfemur -5.57001 17.805 25.9984
rtibia 14.1596
rfoot -13.1412 -29.4886
rtoes 5.69466
lfemur -10.572 -22.9578 -23.615
ltibia 21.2221
lfoot -19.8928 24.2037
ltoes -26.6726
